# xmcd
# 
# Track frame offsets:
#     150
#     18477
#     28893
#     46051
#     58625
#     74802
#     85057
#     98250
#     113437
#     124192
# 
# Disc length: 1831
# 
# Revision: 2
# Processed by: cddbd v1.5.2PL0 Copyright (c) Steve Scherf et al.
# Submitted via: fre:ac v1.0.17
# 
DISCID=7a07250a
DTITLE=Various Artist - Country Gospel: Amazing Grace
DYEAR=2002
DGENRE=Gospel
TTITLE0=01Just A Closer Walk With Thee - Ferlin Husky
TTITLE1=02On The Jericho Road - Touch My Soul
TTITLE2=03The Great Speckled Bird - Mac Wiseman
TTITLE3=04He Touched Me - The Singing ospelaires
TTITLE4=05Where Could I Go But To The Lord - The Singing Gospelaires
TTITLE5=06He's On His WAy - Tommy Daugherty
TTITLE6=07Amazing Grace - Tommy Daugherty
TTITLE7=08His Hand In Mine - The Singing Gospelaires
TTITLE8=09People Get Ready - Tommy Daugherty
TTITLE9=10You Can't Be A Beacon - Wilma Burgess
EXTD=
EXTT0=
EXTT1=
EXTT2=
EXTT3=
EXTT4=
EXTT5=
EXTT6=
EXTT7=
EXTT8=
EXTT9=
PLAYORDER=
